{
  "accessors": [
    {
      "bufferView": 2,
      "componentType": 5126,
      "count": 4004,
      "max": [
        12.194700241088867,
        40.37580108642578,
        2.1597399711608887
      ],
      "min": [
        5.086830139160156,
        28.211999893188477,
        0.6192420125007629
      ],
      "type": "VEC3"
    },
    {
      "bufferView": 2,
      "byteOffset": 48048,
      "componentType": 5126,
      "count": 4004,
      "max": [
        0.9998760223388672,
        0.9996901750564575,
        0.9998760223388672
      ],
      "min": [
        -0.9998760223388672,
        -0.9996901750564575,
        -0.9999380111694336
      ],
      "type": "VEC3"
    },
    {
      "bufferView": 1,
      "componentType": 5126,
      "count": 4004,
      "max": [
        50.04410171508789,
        1.0913200378417969
      ],
      "min": [
        7.956689834594727,
        -19.08919906616211
      ],
      "type": "VEC2"
    },
    {
      "bufferView": 0,
      "componentType": 5125,
      "count": 12792,
      "type": "SCALAR"
    },
    {
      "bufferView": 2,
      "byteOffset": 96096,
      "componentType": 5126,
      "count": 64,
      "max": [
        9.624259948730469,
        26.265300750732422,
        2.5817298889160156
      ],
      "min": [
        7.643280029296875,
        26.199800491333008,
        2.0804800987243652
      ],
      "type": "VEC3"
    },
    {
      "bufferView": 2,
      "byteOffset": 96864,
      "componentType": 5126,
      "count": 64,
      "max": [
        1.0,
        0.07068882137537003,
        0.9974984526634216
      ],
      "min": [
        -1.0,
        -0.9974984526634216,
        -0.9974984526634216
      ],
      "type": "VEC3"
    },
    {
      "bufferView": 1,
      "byteOffset": 32032,
      "componentType": 5126,
      "count": 64,
      "max": [
        0.9989320039749146,
        0.5039830207824707
      ],
      "min": [
        0.005675999913364649,
        0.2764979898929596
      ],
      "type": "VEC2"
    },
    {
      "bufferView": 1,
      "byteOffset": 32544,
      "componentType": 5126,
      "count": 64,
      "max": [
        0.9989320039749146,
        0.5039830207824707
      ],
      "min": [
        0.005675999913364649,
        0.2764979898929596
      ],
      "type": "VEC2"
    },
    {
      "bufferView": 0,
      "byteOffset": 51168,
      "componentType": 5125,
      "count": 90,
      "type": "SCALAR"
    },
    {
      "bufferView": 2,
      "byteOffset": 97632,
      "componentType": 5126,
      "count": 19730,
      "max": [
        12.387999534606934,
        43.343101501464844,
        4.546299934387207
      ],
      "min": [
        4.85329008102417,
        25.992599487304688,
        0.6916589736938477
      ],
      "type": "VEC3"
    },
    {
      "bufferView": 2,
      "byteOffset": 334392,
      "componentType": 5126,
      "count": 19730,
      "max": [
        1.0,
        1.0,
        1.0
      ],
      "min": [
        -1.0,
        -1.0,
        -1.0
      ],
      "type": "VEC3"
    },
    {
      "bufferView": 1,
      "byteOffset": 33056,
      "componentType": 5126,
      "count": 19730,
      "max": [
        0.9979249835014343,
        1.0
      ],
      "min": [
        0.0,
        0.001953009981662035
      ],
      "type": "VEC2"
    },
    {
      "bufferView": 1,
      "byteOffset": 190896,
      "componentType": 5126,
      "count": 19730,
      "max": [
        0.9979249835014343,
        1.0
      ],
      "min": [
        0.0,
        0.001953009981662035
      ],
      "type": "VEC2"
    },
    {
      "bufferView": 0,
      "byteOffset": 51528,
      "componentType": 5125,
      "count": 56268,
      "type": "SCALAR"
    },
    {
      "bufferView": 2,
      "byteOffset": 571152,
      "componentType": 5126,
      "count": 17504,
      "max": [
        13.043299674987793,
        43.744300842285156,
        4.326560020446777
      ],
      "min": [
        4.1979899406433105,
        26.069700241088867,
        0.6073279976844788
      ],
      "type": "VEC3"
    },
    {
      "bufferView": 2,
      "byteOffset": 781200,
      "componentType": 5126,
      "count": 17504,
      "max": [
        1.0,
        1.0,
        1.0
      ],
      "min": [
        -1.0,
        -1.0,
        -1.0
      ],
      "type": "VEC3"
    },
    {
      "bufferView": 1,
      "byteOffset": 348736,
      "componentType": 5126,
      "count": 17504,
      "max": [
        0.9964290261268616,
        1.0
      ],
      "min": [
        0.0,
        0.001953009981662035
      ],
      "type": "VEC2"
    },
    {
      "bufferView": 1,
      "byteOffset": 488768,
      "componentType": 5126,
      "count": 17504,
      "max": [
        0.9964290261268616,
        1.0
      ],
      "min": [
        0.0,
        0.001953009981662035
      ],
      "type": "VEC2"
    },
    {
      "bufferView": 0,
      "byteOffset": 276600,
      "componentType": 5125,
      "count": 62946,
      "type": "SCALAR"
    },
    {
      "bufferView": 2,
      "byteOffset": 991248,
      "componentType": 5126,
      "count": 823,
      "max": [
        12.091400146484375,
        42.68870162963867,
        4.593760013580322
      ],
      "min": [
        5.14985990524292,
        26.3981990814209,
        1.9955099821090698
      ],
      "type": "VEC3"
    },
    {
      "bufferView": 2,
      "byteOffset": 1001124,
      "componentType": 5126,
      "count": 823,
      "max": [
        1.0,
        0.9984536170959473,
        1.0
      ],
      "min": [
        -1.0,
        -0.9984536170959473,
        -1.0
      ],
      "type": "VEC3"
    },
    {
      "bufferView": 1,
      "byteOffset": 628800,
      "componentType": 5126,
      "count": 823,
      "max": [
        36.39899826049805,
        -4.913579940795898
      ],
      "min": [
        17.532100677490234,
        -47.08470153808594
      ],
      "type": "VEC2"
    },
    {
      "bufferView": 0,
      "byteOffset": 528384,
      "componentType": 5125,
      "count": 2694,
      "type": "SCALAR"
    },
    {
      "bufferView": 2,
      "byteOffset": 1011000,
      "componentType": 5126,
      "count": 948,
      "max": [
        12.474499702453613,
        40.44499969482422,
        2.2507400512695313
      ],
      "min": [
        4.770110130310059,
        28.143299102783203,
        0.6217929720878601
      ],
      "type": "VEC3"
    },
    {
      "bufferView": 2,
      "byteOffset": 1022376,
      "componentType": 5126,
      "count": 948,
      "max": [
        0.9996901750564575,
        0.9936055541038513,
        1.0
      ],
      "min": [
        -0.9996901750564575,
        -0.9936055541038513,
        -1.0
      ],
      "type": "VEC3"
    },
    {
      "bufferView": 1,
      "byteOffset": 635384,
      "componentType": 5126,
      "count": 948,
      "max": [
        0.8579000234603882,
        0.9648000001907349
      ],
      "min": [
        0.007899999618530273,
        0.003899990115314722
      ],
      "type": "VEC2"
    },
    {
      "bufferView": 1,
      "byteOffset": 642968,
      "componentType": 5126,
      "count": 948,
      "max": [
        0.8579000234603882,
        0.9648000001907349
      ],
      "min": [
        0.007899999618530273,
        0.003899990115314722
      ],
      "type": "VEC2"
    },
    {
      "bufferView": 0,
      "byteOffset": 539160,
      "componentType": 5125,
      "count": 2484,
      "type": "SCALAR"
    },
    {
      "bufferView": 2,
      "byteOffset": 1033752,
      "componentType": 5126,
      "count": 2384,
      "max": [
        12.530900001525879,
        40.89030075073242,
        2.873660087585449
      ],
      "min": [
        4.713449954986572,
        27.694499969482422,
        0.0035179900005459785
      ],
      "type": "VEC3"
    },
    {
      "bufferView": 2,
      "byteOffset": 1062360,
      "componentType": 5126,
      "count": 2384,
      "max": [
        0.9992259740829468,
        0.8892126679420471,
        0.8664373755455017
      ],
      "min": [
        -0.9992259740829468,
        -0.8892126679420471,
        -0.8676493763923645
      ],
      "type": "VEC3"
    },
    {
      "bufferView": 1,
      "byteOffset": 650552,
      "componentType": 5126,
      "count": 2384,
      "max": [
        56.16279983520508,
        -6.837170124053955
      ],
      "min": [
        9.838379859924316,
        -23.16160011291504
      ],
      "type": "VEC2"
    },
    {
      "bufferView": 0,
      "byteOffset": 549096,
      "componentType": 5125,
      "count": 9360,
      "type": "SCALAR"
    },
    {
      "bufferView": 2,
      "byteOffset": 1090968,
      "componentType": 5126,
      "count": 30282,
      "max": [
        12.527999877929688,
        43.77050018310547,
        4.463220119476318
      ],
      "min": [
        4.716450214385986,
        25.859699249267578,
        0.2565020024776459
      ],
      "type": "VEC3"
    },
    {
      "bufferView": 2,
      "byteOffset": 1454352,
      "componentType": 5126,
      "count": 30282,
      "max": [
        1.0,
        1.0,
        1.0
      ],
      "min": [
        -1.0,
        -1.0,
        -1.0
      ],
      "type": "VEC3"
    },
    {
      "bufferView": 1,
      "byteOffset": 669624,
      "componentType": 5126,
      "count": 30282,
      "max": [
        60.13999938964844,
        1.1400200128555298
      ],
      "min": [
        17.861000061035156,
        -62.118499755859375
      ],
      "type": "VEC2"
    },
    {
      "bufferView": 0,
      "byteOffset": 586536,
      "componentType": 5125,
      "count": 89010,
      "type": "SCALAR"
    }
  ],
  "asset": {
    "extras": {
      "author": "WARENTERTAINMENT™ (https://sketchfab.com/WarEntertainment)",
      "license": "CC-BY-4.0 (http://creativecommons.org/licenses/by/4.0/)",
      "source": "https://sketchfab.com/3d-models/lamborghini-huracan-evo-spyder-390f3b3a71a344069057c3e9b5e03622",
      "title": "Lamborghini Huracan Evo Spyder"
    },
    "generator": "Sketchfab-16.12.0",
    "version": "2.0"
  },
  "bufferViews": [
    {
      "buffer": 0,
      "byteLength": 942576,
      "name": "floatBufferViews",
      "target": 34963
    },
    {
      "buffer": 0,
      "byteLength": 911880,
      "byteOffset": 942576,
      "byteStride": 8,
      "name": "floatBufferViews",
      "target": 34962
    },
    {
      "buffer": 0,
      "byteLength": 1817736,
      "byteOffset": 1854456,
      "byteStride": 12,
      "name": "floatBufferViews",
      "target": 34962
    }
  ],
  "buffers": [
    {
      "byteLength": 3672192,
      "uri": "scene.bin"
    }
  ],
  "extensionsUsed": [
    "KHR_materials_specular"
  ],
  "images": [
    {
      "uri": "textures/Chassislicenseplate1Mtl_baseColor.png"
    },
    {
      "uri": "textures/Chassislicenseplate1Mtl_emissive.png"
    },
    {
      "uri": "textures/Detachdoorl50interior1Mtl_baseColor.png"
    },
    {
      "uri": "textures/Detachdoorr50carpaint1Mtl_emissive.png"
    },
    {
      "uri": "textures/Meshpart1Mtl_baseColor.png"
    }
  ],
  "materials": [
    {
      "doubleSided": true,
      "name": "Brake1Mtl",
      "pbrMetallicRoughness": {
        "baseColorFactor": [
          0.940601,
          0.940601,
          0.940601,
          1.0
        ],
        "metallicFactor": 0.0
      }
    },
    {
      "alphaMode": "BLEND",
      "doubleSided": true,
      "emissiveTexture": {
        "index": 1
      },
      "name": "Chassislicenseplate1Mtl",
      "pbrMetallicRoughness": {
        "baseColorFactor": [
          1.0,
          1.0,
          1.0,
          0.0
        ],
        "baseColorTexture": {
          "index": 0
        },
        "metallicFactor": 0.0
      }
    },
    {
      "doubleSided": true,
      "emissiveTexture": {
        "index": 2
      },
      "extensions": {
        "KHR_materials_specular": {
          "specularColorFactor": [
            1.0,
            1.0,
            1.0
          ],
          "specularFactor": 1.0
        }
      },
      "name": "Detachdoorl50interior1Mtl",
      "pbrMetallicRoughness": {
        "baseColorTexture": {
          "index": 2
        },
        "metallicFactor": 0.7685383355156415
      }
    },
    {
      "doubleSided": true,
      "emissiveTexture": {
        "index": 3
      },
      "name": "Detachdoorr50carpaint1Mtl",
      "pbrMetallicRoughness": {
        "baseColorFactor": [
          0.2314467811533598,
          0.025838643970986126,
          0.0,
          1.0
        ],
        "metallicFactor": 0.0,
        "roughnessFactor": 0.0
      }
    },
    {
      "alphaMode": "BLEND",
      "doubleSided": true,
      "name": "Glassesglasswindows1Mtl",
      "pbrMetallicRoughness": {
        "baseColorFactor": [
          0.0,
          0.0,
          0.0,
          0.431238
        ],
        "metallicFactor": 0.0,
        "roughnessFactor": 0.0
      }
    },
    {
      "doubleSided": true,
      "emissiveTexture": {
        "index": 4
      },
      "name": "Meshpart1Mtl",
      "pbrMetallicRoughness": {
        "baseColorTexture": {
          "index": 4
        },
        "metallicFactor": 0.0,
        "roughnessFactor": 0.0
      }
    },
    {
      "doubleSided": true,
      "name": "Meshpart2Mtl",
      "pbrMetallicRoughness": {
        "baseColorFactor": [
          0.00455975,
          0.00455975,
          0.00455975,
          1.0
        ],
        "metallicFactor": 0.0,
        "roughnessFactor": 0.6201923663005449
      }
    },
    {
      "doubleSided": true,
      "extensions": {
        "KHR_materials_specular": {
          "specularColorFactor": [
            1.0,
            1.0,
            1.0
          ],
          "specularFactor": 1.0
        }
      },
      "name": "Meshpart4Mtl",
      "pbrMetallicRoughness": {
        "baseColorFactor": [
          0.0,
          0.0,
          0.0,
          1.0
        ],
        "metallicFactor": 0.6811449330131292,
        "roughnessFactor": 0.0
      }
    }
  ],
  "meshes": [
    {
      "name": "Object_0",
      "primitives": [
        {
          "attributes": {
            "NORMAL": 1,
            "POSITION": 0,
            "TEXCOORD_0": 2
          },
          "indices": 3,
          "material": 0,
          "mode": 4
        }
      ]
    },
    {
      "name": "Object_1",
      "primitives": [
        {
          "attributes": {
            "NORMAL": 5,
            "POSITION": 4,
            "TEXCOORD_0": 6,
            "TEXCOORD_1": 7
          },
          "indices": 8,
          "material": 1,
          "mode": 4
        }
      ]
    },
    {
      "name": "Object_2",
      "primitives": [
        {
          "attributes": {
            "NORMAL": 10,
            "POSITION": 9,
            "TEXCOORD_0": 11,
            "TEXCOORD_1": 12
          },
          "indices": 13,
          "material": 2,
          "mode": 4
        }
      ]
    },
    {
      "name": "Object_3",
      "primitives": [
        {
          "attributes": {
            "NORMAL": 15,
            "POSITION": 14,
            "TEXCOORD_0": 16,
            "TEXCOORD_1": 17
          },
          "indices": 18,
          "material": 3,
          "mode": 4
        }
      ]
    },
    {
      "name": "Object_4",
      "primitives": [
        {
          "attributes": {
            "NORMAL": 20,
            "POSITION": 19,
            "TEXCOORD_0": 21
          },
          "indices": 22,
          "material": 4,
          "mode": 4
        }
      ]
    },
    {
      "name": "Object_5",
      "primitives": [
        {
          "attributes": {
            "NORMAL": 24,
            "POSITION": 23,
            "TEXCOORD_0": 25,
            "TEXCOORD_1": 26
          },
          "indices": 27,
          "material": 5,
          "mode": 4
        }
      ]
    },
    {
      "name": "Object_6",
      "primitives": [
        {
          "attributes": {
            "NORMAL": 29,
            "POSITION": 28,
            "TEXCOORD_0": 30
          },
          "indices": 31,
          "material": 6,
          "mode": 4
        }
      ]
    },
    {
      "name": "Object_7",
      "primitives": [
        {
          "attributes": {
            "NORMAL": 33,
            "POSITION": 32,
            "TEXCOORD_0": 34
          },
          "indices": 35,
          "material": 7,
          "mode": 4
        }
      ]
    }
  ],
  "nodes": [
    {
      "children": [
        1
      ],
      "matrix": [
        1.0,
        0.0,
        0.0,
        0.0,
        0.0,
        2.220446049250313e-16,
        -1.0,
        0.0,
        0.0,
        1.0,
        2.220446049250313e-16,
        0.0,
        0.0,
        0.0,
        0.0,
        1.0
      ],
      "name": "Sketchfab_model"
    },
    {
      "children": [
        2
      ],
      "name": "root"
    },
    {
      "children": [
        3
      ],
      "matrix": [
        1.0,
        0.0,
        0.0,
        0.0,
        0.0,
        2.220446049250313e-16,
        1.0,
        0.0,
        0.0,
        -1.0,
        2.220446049250313e-16,
        0.0,
        0.0,
        0.0,
        0.0,
        1.0
      ],
      "name": "GLTF_SceneRootNode"
    },
    {
      "children": [
        4
      ],
      "matrix": [
        1.0,
        0.0,
        0.0,
        0.0,
        0.0,
        2.220446049250313e-16,
        -1.0,
        0.0,
        0.0,
        1.0,
        2.220446049250313e-16,
        0.0,
        0.0,
        0.0,
        0.0,
        1.0
      ],
      "name": "Sketchfab_model_0"
    },
    {
      "children": [
        5,
        7,
        9,
        11,
        13,
        15,
        17,
        19
      ],
      "name": "2020 Lamborghini Huracan EVO Spyder.obj.cleaner.materialmerger.gles_1"
    },
    {
      "children": [
        6
      ],
      "name": "Object_2_2"
    },
    {
      "mesh": 0,
      "name": "Object_6"
    },
    {
      "children": [
        8
      ],
      "name": "Object_3_3"
    },
    {
      "mesh": 1,
      "name": "Object_8"
    },
    {
      "children": [
        10
      ],
      "name": "Object_4_4"
    },
    {
      "mesh": 2,
      "name": "Object_10"
    },
    {
      "children": [
        12
      ],
      "name": "Object_5_5"
    },
    {
      "mesh": 3,
      "name": "Object_12"
    },
    {
      "children": [
        14
      ],
      "name": "Object_6_6"
    },
    {
      "mesh": 4,
      "name": "Object_14"
    },
    {
      "children": [
        16
      ],
      "name": "Object_7_7"
    },
    {
      "mesh": 5,
      "name": "Object_16"
    },
    {
      "children": [
        18
      ],
      "name": "Object_8_8"
    },
    {
      "mesh": 6,
      "name": "Object_18"
    },
    {
      "children": [
        20
      ],
      "name": "Object_9_9"
    },
    {
      "mesh": 7,
      "name": "Object_20"
    }
  ],
  "samplers": [
    {
      "magFilter": 9729,
      "minFilter": 9987,
      "wrapS": 10497,
      "wrapT": 10497
    }
  ],
  "scene": 0,
  "scenes": [
    {
      "name": "Sketchfab_Scene",
      "nodes": [
        0
      ]
    }
  ],
  "textures": [
    {
      "sampler": 0,
      "source": 0
    },
    {
      "sampler": 0,
      "source": 1
    },
    {
      "sampler": 0,
      "source": 2
    },
    {
      "sampler": 0,
      "source": 3
    },
    {
      "sampler": 0,
      "source": 4
    }
  ]
}
